<?xml version="1.0" standalone="no"?>
<!DOCTYPE svg PUBLIC "-//W3C//DTD SVG 20010904//EN"
 "http://www.w3.org/TR/2001/REC-SVG-20010904/DTD/svg10.dtd">
<svg version="1.0" xmlns="http://www.w3.org/2000/svg"
 width="415.000000pt" height="324.000000pt" viewBox="0 0 415.000000 324.000000"
 preserveAspectRatio="xMidYMid meet">

<g transform="translate(0.000000,324.000000) scale(0.100000,-0.100000)"
fill="#000000" stroke="none">
<path d="M1302 3116 c-118 -62 -218 -119 -223 -127 -5 -8 -9 -248 -9 -546 l0
-532 -42 -11 c-24 -6 -108 -32 -187 -56 -612 -192 -866 -439 -738 -718 100
-218 532 -430 1067 -526 958 -170 2132 -42 2648 289 95 61 198 167 231 237 32
66 39 165 17 230 -23 68 -103 173 -178 233 -68 55 -317 186 -329 174 -3 -5 -4
-41 0 -80 l6 -73 81 -83 c93 -96 121 -154 111 -238 -8 -61 -28 -100 -86 -162
-138 -148 -365 -251 -706 -321 -363 -74 -693 -104 -959 -86 -147 10 -342 37
-428 61 l-38 10 0 1219 c0 970 -3 1220 -12 1220 -7 -1 -109 -52 -226 -114z
m-230 -1810 l3 -344 -30 15 c-122 63 -243 181 -270 264 -33 100 0 200 98 297
53 52 148 111 179 112 16 0 18 -26 20 -344z"/>
<path d="M2318 2629 c-171 -86 -219 -114 -223 -131 -3 -13 -4 -360 -3 -773 l3
-750 220 -61 220 -61 3 468 c1 257 1 681 0 942 l-3 475 -217 -109z"/>
<path d="M3085 2252 l-150 -77 0 -539 0 -539 135 -38 c74 -21 145 -41 158 -44
l22 -5 0 660 c0 363 -3 660 -7 660 -5 -1 -75 -36 -158 -78z"/>
<path d="M39 311 c-29 -29 -29 -30 -29 -155 0 -118 1 -126 22 -137 29 -16 48
11 48 68 l0 43 148 0 c164 0 198 -9 278 -75 91 -75 133 -22 49 60 -71 68 -130
86 -313 92 -123 5 -155 9 -160 21 -13 34 25 42 214 42 l182 0 49 -34 c47 -32
50 -33 61 -15 19 31 14 59 -17 90 l-29 29 -237 0 -237 0 -29 -29z"/>
<path d="M750 318 c-44 -31 -70 -82 -70 -141 0 -61 19 -106 59 -140 l33 -27
242 0 c223 0 244 2 260 18 15 18 15 20 -2 35 -16 15 -47 17 -233 17 -152 0
-221 4 -239 13 -57 29 -64 121 -13 155 23 14 60 18 248 22 141 3 227 9 240 17
19 11 19 12 1 32 -18 20 -29 21 -256 21 -229 0 -238 -1 -270 -22z"/>
<path d="M1387 322 c-14 -15 -17 -42 -17 -155 0 -127 1 -137 21 -147 42 -23
49 0 49 150 0 120 -2 139 -18 154 -18 15 -20 15 -35 -2z"/>
<path d="M1535 320 c-36 -40 -16 -49 122 -52 l128 -3 -4 -110 c-3 -103 -2
-111 19 -130 21 -19 22 -19 36 0 9 12 14 44 14 85 0 80 14 126 44 142 11 7 61
15 110 18 93 5 117 18 103 54 -6 14 -36 16 -280 16 -259 0 -275 -1 -292 -20z"/>
<path d="M2260 318 c-44 -31 -70 -82 -70 -141 0 -61 19 -106 59 -140 l33 -27
248 0 c209 0 250 2 260 15 10 13 10 19 -5 35 -17 19 -32 20 -234 20 -154 0
-223 4 -241 13 -57 29 -64 121 -13 155 23 14 60 18 248 22 141 3 227 9 240 17
19 11 19 12 1 32 -18 20 -29 21 -256 21 -229 0 -238 -1 -270 -22z"/>
<path d="M2930 318 c-44 -31 -70 -82 -70 -141 0 -61 19 -106 59 -140 l33 -27
258 0 c243 0 259 1 265 19 3 10 3 26 -1 35 -5 14 -32 16 -238 16 -248 0 -268
4 -295 51 -20 36 -7 94 26 117 23 15 59 17 253 20 189 3 228 6 243 19 16 15
16 17 1 35 -16 16 -37 18 -259 18 -235 0 -243 -1 -275 -22z"/>
<path d="M3567 322 c-24 -26 -25 -283 -2 -302 26 -22 53 13 57 72 l3 51 175
-2 c96 -1 186 -5 200 -8 35 -8 58 -30 65 -63 9 -40 40 -67 60 -50 12 10 15 40
15 156 0 130 -2 144 -19 153 -29 16 -51 -16 -51 -76 l0 -50 -147 4 c-228 5
-251 8 -272 27 -11 10 -23 31 -26 46 -3 15 -14 35 -24 44 -16 15 -19 15 -34
-2z"/>
<path d="M827 192 c-16 -18 -16 -20 1 -35 16 -15 45 -17 208 -17 150 0 194 3
210 14 15 12 17 18 8 33 -10 16 -31 18 -211 21 -184 2 -201 1 -216 -16z"/>
<path d="M2336 192 c-15 -18 -15 -20 2 -35 16 -15 45 -17 209 -17 172 0 192 2
207 18 15 18 15 20 -2 35 -16 15 -45 17 -209 17 -172 0 -192 -2 -207 -18z"/>
</g>
</svg>
